HIERARCHY
ROOT hip
{
	OFFSET 0.000000 0.000000 0.000000 
	CHANNELS 6 Xposition Yposition Zposition Xrotation Zrotation Yrotation
	JOINT abdomen
	{
		OFFSET 0.000000 3.402643 0.000000 
		CHANNELS 3 Xrotation Zrotation Yrotation
		JOINT chest
		{
			OFFSET 0.000000 8.438565 -0.680529 
			CHANNELS 3 Xrotation Zrotation Yrotation
			JOINT neck
			{
				OFFSET 0.000000 10.207942 -0.272212 
				CHANNELS 3 Xrotation Zrotation Yrotation
				JOINT head
				{
					OFFSET 0.000000 3.130431 0.000000 
					CHANNELS 3 Xrotation Zrotation Yrotation
					End Site
					{
						OFFSET 0.000000 3.130435 0.000000 
					}
				}
			}
			JOINT lCollar
			{
				OFFSET 3.470700 6.669187 -0.816635 
				CHANNELS 3 Yrotation Zrotation Xrotation
				JOINT lShldr
				{
					OFFSET 3.198488 0.000000 0.000000 
					CHANNELS 3 Zrotation Yrotation Xrotation
					JOINT lForeArm
					{
						OFFSET 10.139888 0.000000 0.000000 
						CHANNELS 3 Yrotation Zrotation Xrotation
						JOINT lHand
						{
							OFFSET 8.370511 0.000000 0.000000 
							CHANNELS 3 Zrotation Yrotation Xrotation
							End Site
							{
								OFFSET 4.083176 0.000000 0.000000 
							}
						}
					}
				}
			}
			JOINT rCollar
			{
				OFFSET -3.470700 6.669187 -0.816635 
				CHANNELS 3 Yrotation Zrotation Xrotation
				JOINT rShldr
				{
					OFFSET -3.198488 0.000000 0.000000 
					CHANNELS 3 Zrotation Yrotation Xrotation
					JOINT rForeArm
					{
						OFFSET -10.139888 0.000000 0.000000 
						CHANNELS 3 Yrotation Zrotation Xrotation
						JOINT rHand
						{
							OFFSET -8.370511 0.000000 0.000000 
							CHANNELS 3 Zrotation Yrotation Xrotation
							End Site
							{
								OFFSET -4.083176 0.000000 0.000000 
							}
						}
					}
				}
			}
		}
	}
	JOINT lThigh
	{
		OFFSET 5.308129 -1.633274 1.361059 
		CHANNELS 3 Xrotation Zrotation Yrotation
		JOINT lShin
		{
			OFFSET -2.041588 -20.007561 0.000000 
			CHANNELS 3 Xrotation Zrotation Yrotation
			JOINT lFoot
			{
				OFFSET 0.000000 -19.190928 -1.224953 
				CHANNELS 3 Xrotation Yrotation Zrotation
				End Site
				{
					OFFSET 0.000000 -2.449906 4.627600 
				}
			}
		}
	}
	JOINT rThigh
	{
		OFFSET -5.308129 -1.633274 1.361059 
		CHANNELS 3 Xrotation Zrotation Yrotation
		JOINT rShin
		{
			OFFSET 2.041588 -20.007561 0.000000 
			CHANNELS 3 Xrotation Zrotation Yrotation
			JOINT rFoot
			{
				OFFSET 0.000000 -19.190928 -1.224953 
				CHANNELS 3 Xrotation Yrotation Zrotation
				End Site
				{
					OFFSET 0.000000 -2.449906 4.627600 
				}
			}
		}
	}
}
MOTION
Frames: 10
Frame Time: 0.016667
-0.055460 42.498066 7.396079 -11.326300 -3.179180 9.981690 -23.779800 0.778925 0.466554 13.095100 0.716538 0.306556 -22.258801 -4.809760 -3.866220 1.173230 4.297330 -1.696070 2.000000 -2.000000 0.000000 73.488503 -118.470001 62.133202 141.240997 -0.100621 0.101501 0.159060 -0.163463 149.748001 -2.000000 2.000000 0.000000 32.752800 56.281799 138.660004 -97.812897 0.197591 0.116017 -0.054733 -0.000592 -133.220993 -3.424325 6.607698 -7.710746 43.641499 3.114552 2.799700 -25.691845 -0.259230 -0.183747 9.377934 4.002156 -6.949445 28.576630 -3.755897 -1.892868 -26.654524 -5.084218 -3.156336 
-0.079217 42.577087 7.422287 -11.385300 -3.207240 10.176300 -23.993700 0.611980 0.549306 12.890400 0.474239 0.326793 -21.909800 -5.371960 -3.608060 1.349880 4.014700 -1.689300 2.000000 -2.000000 0.000000 73.725899 -119.095001 62.210602 141.376999 -0.100403 0.101228 0.156526 -0.162681 150.695007 -2.000000 2.000000 0.000000 34.355801 56.114399 139.449005 -98.750397 0.195535 0.115718 -0.054964 -0.003701 -132.106995 -3.200188 6.739346 -7.730524 43.208378 3.130937 2.772748 -25.447617 -0.265472 -0.187071 9.584157 4.082637 -7.112868 28.259127 -3.768491 -1.877895 -26.134239 -5.147212 -3.142984 
-0.098185 42.620842 7.430902 -11.424300 -3.197230 10.342500 -23.954100 0.610676 0.656839 13.183300 0.503614 0.384052 -21.952000 -5.923640 -3.374400 1.359890 3.809860 -1.659600 2.000000 -2.000000 0.000000 73.026604 -119.292000 62.903801 141.514008 -0.100185 0.100955 0.153719 -0.151996 151.750000 -2.000000 2.000000 0.000000 34.961102 56.065498 139.488007 -99.512100 0.193869 0.115450 -0.055192 -0.006179 -131.218994 -2.917300 6.783926 -7.822400 42.853325 3.157040 2.757991 -25.447990 -0.222783 -0.181671 9.698349 4.092314 -7.246957 28.051802 -3.765687 -1.859115 -25.791372 -5.066404 -3.078743 
-0.117199 42.666527 7.429678 -11.413500 -3.111190 10.500400 -24.011600 0.480824 0.810323 13.232300 0.339008 0.444708 -21.902201 -6.302700 -3.184090 1.408950 3.673330 -1.620860 2.000000 -2.000000 0.000000 72.608704 -119.429001 63.246700 141.660004 -0.099952 0.100661 0.152064 -0.151427 152.375000 -2.000000 2.000000 0.000000 35.800999 55.928299 139.742004 -100.147003 0.192483 0.115210 -0.055439 -0.008490 -130.389008 -2.824934 6.687894 -8.024496 42.587090 3.176541 2.748738 -25.350904 -0.149733 -0.155978 9.721442 4.022969 -7.334176 27.990881 -3.773844 -1.842075 -25.646420 -4.989129 -3.040991 
-0.139056 42.680042 7.411142 -11.402400 -2.986850 10.650600 -24.020201 0.382666 0.992757 13.291000 0.213119 0.519704 -21.918100 -6.409940 -3.119660 1.438320 3.663600 -1.599010 2.000000 -2.000000 0.000000 72.170502 -119.439003 63.539600 141.757996 -0.099798 0.100465 0.151625 -0.151273 152.541000 -2.000000 2.000000 0.000000 36.190601 55.762501 139.654999 -100.567001 0.191568 0.115043 -0.055675 -0.010445 -129.684998 -2.797158 6.511990 -8.296276 42.468479 3.182600 2.733112 -25.409754 -0.102291 -0.147576 9.692369 3.910222 -7.492233 28.020603 -3.778993 -1.862492 -25.599865 -4.917899 -3.013454 
-0.160091 42.663441 7.368556 -11.421100 -2.900490 10.800300 -23.969999 0.303673 1.198570 13.359400 0.077509 0.615212 -22.235600 -6.598380 -2.955310 1.301340 3.643970 -1.538470 2.000000 -2.000000 0.000000 71.664101 -119.361000 63.920601 141.835999 -0.099674 0.100308 0.151290 -0.151154 152.667999 -2.000000 2.000000 0.000000 36.198399 55.577702 139.255005 -100.820999 0.191015 0.114939 -0.055868 -0.011909 -129.158005 -2.863952 6.393664 -8.554907 42.537144 3.180272 2.731301 -25.546133 -0.146613 -0.188599 9.662601 3.839648 -7.702986 28.102638 -3.752806 -1.855691 -25.710243 -4.853922 -3.011617 
-0.180281 42.617889 7.297400 -11.440000 -2.833290 10.992800 -23.890400 0.194300 1.406740 13.339800 -0.125947 0.709308 -22.357401 -6.734000 -2.931770 1.291580 3.614690 -1.537700 2.000000 -2.000000 0.000000 71.351997 -119.244003 64.125801 141.934006 -0.099520 0.100112 0.150415 -0.160605 153.000000 -2.000000 2.000000 0.000000 36.088902 55.412498 138.755997 -100.878998 0.190888 0.114914 -0.056047 -0.013182 -128.699005 -3.205629 6.264682 -8.797637 42.793900 3.162171 2.751051 -25.595194 -0.119527 -0.159306 9.574441 3.827753 -7.959933 28.210739 -3.754881 -1.855497 -26.013157 -4.830079 -3.025367 
-0.202129 42.538475 7.200531 -11.400100 -2.757100 11.219600 -23.850300 0.040928 1.580900 13.193200 -0.406774 0.784987 -22.434401 -6.875620 -2.848320 1.291640 3.556170 -1.525150 2.000000 -2.000000 0.000000 71.409897 -119.098000 64.086800 142.022003 -0.099381 0.099935 0.148978 -0.160077 153.546997 -2.000000 2.000000 0.000000 35.999298 55.325500 138.296997 -100.694000 0.191291 0.114991 -0.056319 -0.014994 -128.044998 -3.623001 6.142941 -9.066387 43.266602 3.132935 2.763060 -25.790941 0.003723 -0.123336 9.408494 3.827466 -8.213214 28.351019 -3.745059 -1.882027 -26.591963 -4.814505 -3.073324 
-0.225435 42.456112 7.087507 -11.283100 -2.786960 11.463800 -23.663099 0.095094 1.725670 13.329900 -0.406898 0.862141 -22.750799 -7.178710 -2.761200 1.184080 3.478030 -1.518200 2.000000 -2.000000 0.000000 71.038498 -118.755997 64.311798 142.041000 -0.099351 0.099895 0.147622 -0.159564 154.065002 -2.000000 2.000000 0.000000 34.980598 55.337200 137.203003 -100.253998 0.192249 0.115168 -0.056621 -0.016856 -127.371002 -4.169009 6.102462 -9.418749 43.772865 3.068327 2.819284 -25.956991 0.056892 -0.099334 9.045997 4.161185 -8.417309 28.525583 -3.770863 -1.896846 -27.369724 -4.885223 -3.352666 
-0.245799 42.350197 6.957263 -11.078600 -2.875180 11.734400 -23.583700 0.046440 1.873820 13.271000 -0.629641 0.939867 -23.091200 -7.362700 -2.718320 1.047170 3.419380 -1.533230 2.000000 -2.000000 0.000000 71.348099 -118.443001 63.950802 142.041000 -0.099351 0.099895 0.147316 -0.159446 154.182007 -2.000000 2.000000 0.000000 34.284901 55.348400 136.354996 -99.648804 0.193570 0.115400 -0.056854 -0.018204 -126.883003 -4.901021 6.082150 -9.814975 44.307121 3.010154 2.857785 -26.083921 0.086019 -0.091255 8.553973 4.310929 -8.565756 28.922283 -3.757492 -1.920208 -28.235966 -4.917556 -3.464684 
